# xmcd
#
# Track frame offsets: 
#        150
#        13573
#        29208
#        48531
#        66710
#        84102
#        100665
#        120309
#        130707
#        150318
#
# Disc length: 2229 seconds
#
# Revision: 0
# Processed by: cddbd v1.5.2PL0 Copyright (c) Steve Scherf et al.
# Submitted via: ExactAudioCopyFreeDBPlugin 1.0
#
DISCID=7708b30a
DTITLE=The Brew - Control
DYEAR=2014
DGENRE=Blues
TTITLE0=Repeat
TTITLE1=Eject
TTITLE2=Mute
TTITLE3=Pause
TTITLE4=Shuffle
TTITLE5=Fast Forward
TTITLE6=Skip
TTITLE7=Stop
TTITLE8=Play
TTITLE9=Rewind
EXTD=
EXTT0=
EXTT1=
EXTT2=
EXTT3=
EXTT4=
EXTT5=
EXTT6=
EXTT7=
EXTT8=
EXTT9=
PLAYORDER=
